<?xml version="1.0" encoding="UTF-8" standalone="no"?>
<!-- Created with Inkscape (http://www.inkscape.org/) -->

<svg
   width="297mm"
   height="297mm"
   viewBox="0 0 297 297"
   version="1.1"
   id="svg5"
   inkscape:version="1.2.1 (9c6d41e410, 2022-07-14)"
   sodipodi:docname="logobel.svg"
   inkscape:export-filename="logobel.svg"
   inkscape:export-xdpi="171.04378"
   inkscape:export-ydpi="171.04378"
   xmlns:inkscape="http://www.inkscape.org/namespaces/inkscape"
   xmlns:sodipodi="http://sodipodi.sourceforge.net/DTD/sodipodi-0.dtd"
   xmlns="http://www.w3.org/2000/svg"
   xmlns:svg="http://www.w3.org/2000/svg">
  <sodipodi:namedview
     id="namedview7"
     pagecolor="#ffffff"
     bordercolor="#000000"
     borderopacity="0.25"
     inkscape:showpageshadow="2"
     inkscape:pageopacity="0.0"
     inkscape:pagecheckerboard="0"
     inkscape:deskcolor="#d1d1d1"
     inkscape:document-units="mm"
     showgrid="false"
     inkscape:zoom="0.76880612"
     inkscape:cx="7.8043084"
     inkscape:cy="538.49728"
     inkscape:window-width="1920"
     inkscape:window-height="1017"
     inkscape:window-x="-8"
     inkscape:window-y="-8"
     inkscape:window-maximized="1"
     inkscape:current-layer="svg5" />
  <defs
     id="defs2" />
  <path
     style="font-variation-settings:normal;fill:none;fill-opacity:1;stroke:#ffffff;stroke-width:3.96875;stroke-linecap:butt;stroke-linejoin:round;stroke-miterlimit:4;stroke-dasharray:none;stroke-dashoffset:0;stroke-opacity:1;stop-color:#000000"
     d="M 101.68883,90.519583 C 90.958259,83.08907 76.520576,77.826394 55.973202,76.524668 32.88513,75.061972 17.760253,45.820021 16.97279,27.653874 16.661377,20.469488 27.434815,15.971486 27.434815,15.971486 l 233.470675,-3.826144 15.55972,9.933302 c 0,0 4.03237,12.138409 4.60814,16.000556 0.57577,3.862033 0.56757,52.413358 0.56626,60.137334 l -0.0181,119.722836 c -9e-4,6.62067 -0.009,46.8961 -0.58452,49.10289 -0.57672,2.20678 -6.34185,12.13682 -6.34185,12.13682 h -0.002 c 0,0 20.90508,-15.4173 -28.16149,-58.56244 -0.71912,-0.63232 -1.45327,-1.27062 -2.20273,-1.91491"
     id="path7950-8-9"
     sodipodi:nodetypes="csscccssssccsc" />
  <g
     id="g5444-2-1"
     transform="matrix(6.0266485,0,0,5.998634,-288.73734,-650.35323)"
     style="fill:none;stroke:#ffffff;stroke-width:0.660069;stroke-dasharray:none;stroke-opacity:1">
    <path
       id="rect1232-2-4-3-7"
       style="font-variation-settings:normal;display:inline;fill:none;fill-opacity:1;fill-rule:evenodd;stroke:#ffffff;stroke-width:0.660069;stroke-linecap:butt;stroke-linejoin:miter;stroke-miterlimit:4;stroke-dasharray:none;stroke-dashoffset:0;stroke-opacity:1;stop-color:#000000"
       d="m 80.567689,121.53446 -0.348735,1.30472 -2.492383,-0.66617 -0.887249,3.31946 2.54298,0.67971 -0.492692,2.09186 -2.798138,-0.7479 -0.783702,2.93205 -2.713318,-0.72523 -2.710872,10.14217 3.20652,0.85707 -0.783887,2.93277 12.457626,3.32975 0.783887,-2.93276 3.084652,0.82449 2.743418,-10.26396 -3.084649,-0.82448 0.751147,-2.81028 -2.664856,-0.71228 0.49269,-2.09188 2.428944,0.64923 0.887251,-3.31946 -2.609965,-0.69762 0.348735,-1.30472 z" />
    <path
       id="rect1232-2-9-6"
       style="fill:none;fill-opacity:1;fill-rule:evenodd;stroke:#ffffff;stroke-width:0.660069;stroke-dasharray:none;stroke-opacity:1;stop-color:#000000"
       transform="rotate(14.964591)"
       d="m 109.1888,96.636841 h 7.61531 v 3.682049 h -7.61531 z" />
    <path
       id="rect1277-2-8-4-4"
       style="font-variation-settings:normal;fill:#fffff8;fill-opacity:1;fill-rule:evenodd;stroke:#ffffff;stroke-width:0.660069;stroke-linecap:butt;stroke-linejoin:miter;stroke-miterlimit:4;stroke-dasharray:none;stroke-dashoffset:0;stroke-opacity:1;stop-color:#000000"
       d="m 76.575699,130.66058 -0.522459,1.95468 -2.198484,-0.58762 -1.807222,6.76136 2.598201,0.69447 -0.522583,1.95515 10.092122,2.6975 0.522589,-1.95516 2.498575,0.66783 1.82893,-6.84258 -2.498573,-0.66782 0.500755,-1.87348 z" />
    <path
       id="rect1146-8-9-9"
       style="font-variation-settings:normal;display:inline;fill:none;fill-opacity:0.0659341;fill-rule:evenodd;stroke:#ffffff;stroke-width:0.660069;stroke-linecap:butt;stroke-linejoin:miter;stroke-miterlimit:4;stroke-dasharray:none;stroke-dashoffset:0;stroke-opacity:1;stop-color:#000000"
       d="m 80.02309,122.8162 -2.332044,-0.62332 -0.887254,3.31948 2.542986,0.6797 -0.4927,2.09188 -2.798138,-0.7479 -0.783693,2.93203 -2.713323,-0.72523 -0.968414,3.62313 -1.742454,6.51904 3.206528,0.85705 -0.783893,2.93278 12.457625,3.32976 0.783886,-2.93277 3.08465,0.82448 2.743417,-10.26393 -3.08465,-0.82449 0.75115,-2.81027 -2.664861,-0.71228 0.492693,-2.09188 2.428948,0.64922 0.887255,-3.31947 -2.576174,-0.68858"
       sodipodi:nodetypes="ccccccccccccccccccccccc" />
  </g>
  <g
     id="g7948-1-9"
     transform="matrix(7.6493718,-2.8163436,2.8062238,7.6769569,-404.14429,-97.201675)"
     style="fill:none;stroke:#ffffff;stroke-width:0.486215;stroke-dasharray:none;stroke-opacity:1">
    <path
       id="rect5446-7-1-3"
       style="fill:none;fill-opacity:1;fill-rule:evenodd;stroke:#ffffff;stroke-width:0.486215;stroke-dasharray:none;stroke-opacity:1;stop-color:#000000"
       d="m 45.381076,42.828774 0.0411,-1.14175 2.839966,0.334655 0.100701,0.884615 m 0.833044,7.317893 0.154403,1.379996 c -1.059768,0.198217 -1.569114,0.509447 0.103563,0.707664 l 0.694249,6.277079 H 44.8138 l 0.261786,-8.055503"
       sodipodi:nodetypes="cccccccccc" />
    <path
       id="rect5446-7-2-5-9"
       style="fill:none;fill-opacity:1;fill-rule:evenodd;stroke:#ffffff;stroke-width:0.486215;stroke-dasharray:none;stroke-opacity:1;stop-color:#000000"
       d="m 45.374124,42.85826 0.04544,-1.262492 2.839966,0.334655 0.113354,0.995763 m 0.852432,7.48821 0.131962,1.159223 c -1.059768,0.198217 -1.571168,0.515045 0.101509,0.713262 l 0.686703,6.210789 h -5.334299 l 0.294768,-8.189282"
       sodipodi:nodetypes="cccccccccc" />
    <path
       id="rect5498-5-17-7"
       style="fill:none;fill-opacity:1;fill-rule:evenodd;stroke:#ffffff;stroke-width:0.486215;stroke-dasharray:none;stroke-opacity:1;stop-color:#000000"
       d="M 53.316429,50.419218 H 38.989444 l 0.1664,-0.906204 -0.30897,-1.088403 0.433417,-2.371746 -0.288483,-1.09539 0.209544,-1.227643 -0.211908,-0.709803 h 16.027983 l -0.177086,0.972118 0.189693,1.476748 -0.234126,1.093621 0.290811,1.536075 -0.295566,1.337178"
       sodipodi:nodetypes="cccccccccccccc" />
    <path
       id="rect5498-5-1-6-2"
       style="display:inline;fill:#ffffff;fill-opacity:1;fill-rule:evenodd;stroke:#ffffff;stroke-width:0.486215;stroke-dasharray:none;stroke-opacity:1;stop-color:#000000"
       d="m 38.989443,50.331464 0.1664,-0.906204 -0.30897,-1.088403 0.433417,-2.371746 -0.288483,-1.09539 0.209544,-1.227643 -0.211908,-0.709803 h 16.027983 l -0.177086,0.972118 0.189693,1.476748 -0.234126,1.093621 0.290811,1.536075 -0.295566,1.337178 -0.02778,1.136898"
       sodipodi:nodetypes="cccccccccccccc" />
  </g>
  <path
     id="rect358-9-4"
     style="fill:none;fill-rule:evenodd;stroke:#ffffff;stroke-width:3.96875;stroke-linejoin:round;stroke-dasharray:none;stroke-opacity:1;stop-color:#000000"
     d="M 36.609293,13.979281 H 254.78129 c 16.42059,0 29.64006,13.223632 29.64006,29.649399 v 210.95078 c 0,16.42579 -13.21947,29.64941 -29.64006,29.64941 H 36.609293 c -16.420595,0 -29.6400646,-13.22362 -29.6400646,-29.64941 V 43.62868 c 0,-16.425767 13.2194696,-29.649399 29.6400646,-29.649399 z" />
  <text
     xml:space="preserve"
     style="font-size:41.7841px;line-height:0;font-family:'Berlin Sans FB Demi';-inkscape-font-specification:'Berlin Sans FB Demi, Normal';text-align:end;text-anchor:end;fill:none;stroke:#ffffff;stroke-width:3.5;stroke-linecap:round;stroke-linejoin:round;stroke-dasharray:none;stroke-opacity:1"
     x="190.87881"
     y="328.73541"
     id="text5428"
     transform="scale(1.1835314,0.84492899)"><tspan
       sodipodi:role="line"
       id="tspan5426"
       style="stroke:#ffffff;stroke-width:3.5;stroke-dasharray:none;stroke-opacity:1"
       x="190.87881"
       y="328.73541">BIG MC</tspan></text>
</svg>
